<svg id="Layer_1" data-name="Layer 1" xmlns="http://www.w3.org/2000/svg" viewBox="0 0 512 512"><defs><style>.cls-1{fill:#dde5e8;}.cls-2,.cls-4{fill:#71c6c4;}.cls-3{fill:#cad8dd;}.cls-4{fill-rule:evenodd;}</style></defs><title>calendar-star-flat</title><path class="cls-1" d="M0,396.8a64,64,0,0,0,64,64H448a64,64,0,0,0,64-64V179.2H0Z"/><path class="cls-2" d="M512,179.2V102.4a64,64,0,0,0-64-64H64a64,64,0,0,0-64,64v76.8Z"/><path class="cls-1" d="M179.2,64a38.4,38.4,0,0,1-38.4,38.4h0A38.4,38.4,0,0,1,102.4,64V38.4A38.4,38.4,0,0,1,140.8,0h0a38.4,38.4,0,0,1,38.4,38.4Z"/><path class="cls-1" d="M409.6,64a38.4,38.4,0,0,1-38.4,38.4h0A38.4,38.4,0,0,1,332.8,64V38.4A38.4,38.4,0,0,1,371.2,0h0a38.4,38.4,0,0,1,38.4,38.4Z"/><path class="cls-3" d="M448,460.8H64a64,64,0,0,1-64-64v32A83.2,83.2,0,0,0,83.2,512H428.8A83.2,83.2,0,0,0,512,428.8v-32A64,64,0,0,1,448,460.8Z"/><path class="cls-4" d="M268.4,251.22l9.06,19.09a13.88,13.88,0,0,0,10.41,7.87l20.26,3.06c11.34,1.71,15.87,16.21,7.67,24.53l-14.66,14.86a14.74,14.74,0,0,0-4,12.73l3.46,21c1.94,11.75-9.92,20.71-20.07,15.16l-18.12-9.91a13.36,13.36,0,0,0-12.87,0l-18.12,9.91c-10.15,5.55-22-3.41-20.07-15.16l3.46-21a14.74,14.74,0,0,0-4-12.73l-14.66-14.86c-8.21-8.32-3.68-22.82,7.66-24.53l20.26-3.06a13.88,13.88,0,0,0,10.41-7.87l9.06-19.09A13.6,13.6,0,0,1,268.4,251.22Z"/></svg>